<svg version="1.1" xmlns="http://www.w3.org/2000/svg" xmlns:xlink="http://www.w3.org/1999/xlink" x="0" y="0" viewBox="0 0 480.86 195.08" style="enable-background:new 0 0 480.86 195.08" xml:space="preserve"><style>.st1{clip-path:url(#SVGID_00000164504289528916546900000015950546616742024618_);fill:#ffd400}</style><path style="fill:#d7182a" d="M0 0h480.86v195.08H0z"/><defs><path id="SVGID_1_" d="M0 0h480.86v195.08H0z"/></defs><clipPath id="SVGID_00000134223319593722220520000009939040584703068568_"><use xlink:href="#SVGID_1_" style="overflow:visible"/></clipPath><path style="clip-path:url(#SVGID_00000134223319593722220520000009939040584703068568_);fill:#ffd400" d="M105.82 162.36H38.1V36.45h63.78s36.66 1.45 37.49 35.41c0 0 0 21.75-10.98 26.71 0 0 15.53 8.08 14.71 29.41 0 0 .83 33.14-37.28 34.38M76.83 83.87h16.03s5.09-.42 5.09-6.63c0 0 .35-7.25-4.74-7.25H76.83v13.88zm19.26 32.72H76.83v13.88h18.85s6.01-.41 6.01-6.62c-.01 0 .4-7.26-5.6-7.26M151.16 36.45h39.97v125.91h-39.97zM242.9 127.58V36.45h-39.96v125.91h64.61v-34.78zM314.55 127.58V36.45h-39.97v125.91h64.61v-34.78zM376.85 36.45l-33.81 125.91h34.45l4.94-16.16h28.88l4.94 16.16h34.45L416.87 36.45h-40.02zm13.33 84.38 6.68-21.88 6.69 21.88h-13.37z"/></svg>
